# xmcd
#
# Track frame offsets: 
#        182
#        13092
#        25447
#        37120
#        50745
#        62127
#        77797
#        90675
#        105785
#        119747
#
# Disc length: 1771 seconds
#
# Revision: 2
# Processed by: cddbd v1.5.2PL0 Copyright (c) Steve Scherf et al.
# Submitted via: ExactAudioCopy v1.0b1
#
DISCID=8506e90a
DTITLE=Ray Charles - Classics
DYEAR=1995
DGENRE=
TTITLE0=I've Got A Women
TTITLE1=It Should've Been Me
TTITLE2=Hallelujah I Love Her So
TTITLE3=A Fool For You
TTITLE4=This Little Girl Of Mine
TTITLE5=(Night Time Is) The Right Time
TTITLE6=Greenbacks
TTITLE7=Drown In My Own Tears
TTITLE8=Come Back
TTITLE9=Don't You Know
EXTD=
EXTT0=
EXTT1=
EXTT2=
EXTT3=
EXTT4=
EXTT5=
EXTT6=
EXTT7=
EXTT8=
EXTT9=
PLAYORDER=
